<svg aria-hidden="true" style="position:absolute;width:0;height:0" xmlns="http://www.w3.org/2000/svg" overflow="hidden"><defs><symbol id="icon-graphic" viewBox="0 0 29 32"><path fill="var(--color1, #00b2a0)" d="m26.409 9.772-.951.951a11.34 11.34 0 0 0-7.447-2.8c-1.849 0-3.697.475-5.281 1.32l4.014-4.014c.317.211.686.317 1.057.317.528 0 1.057-.211 1.479-.634a2.105 2.105 0 0 0 0-3.011c-.423-.423-.951-.634-1.479-.634s-1.057.211-1.479.634c-.686.74-.792 1.795-.317 2.588l-5.07 5.07-.951-.951-2.588 2.588.951.951-5.176 5.176a1.906 1.906 0 0 0-1.057-.317c-.528 0-1.057.211-1.479.634a2.105 2.105 0 0 0 0 3.011c.423.369.951.581 1.479.581s1.057-.211 1.479-.634c.686-.686.792-1.743.317-2.588l4.014-4.014c-2.112 4.067-1.637 9.138 1.479 12.729l-.951 1.003 2.641 2.588 2.588-2.588-2.588-2.588-.898.898c-3.063-3.592-3.222-8.767-.634-12.57l.423.423 2.641-2.588-.475-.423c1.69-1.215 3.75-1.849 5.863-1.849 2.483 0 4.806.898 6.707 2.483l-.951.898L26.41 15l2.588-2.588L26.41 9.77zM12.201 27.729l-1.109 1.109-1.109-1.109 1.109-1.109 1.109 1.109zM17.06 2.694c.211-.211.475-.317.74-.317s.528.106.74.317a1.02 1.02 0 0 1 0 1.479c-.211.211-.475.317-.74.317s-.528-.106-.74-.317c-.423-.369-.423-1.057 0-1.479zM2.852 19.859c-.211.211-.475.317-.74.317s-.528-.106-.74-.317c-.211-.159-.317-.423-.317-.74 0-.264.106-.528.317-.74s.475-.317.74-.317.528.106.74.317c.423.423.423 1.109 0 1.479v.001zm7.078-7.447-1.109-1.109 1.109-1.109 1.109 1.109-1.109 1.109zm16.479 1.109L25.3 12.412l1.109-1.109 1.109 1.109-1.109 1.109z"/></symbol><symbol id="icon-logo" viewBox="0 0 32 32"><path fill="var(--color1, #00b2a0)" d="M16 3.81c6.705 0 12.19 5.486 12.19 12.19S22.704 28.19 16 28.19C9.295 28.19 3.81 22.704 3.81 16S9.296 3.81 16 3.81zM16 0C7.162 0 0 7.162 0 16s7.162 16 16 16c8.838 0 16-7.162 16-16S24.838 0 16 0z"/></symbol><symbol id="icon-monitor" viewBox="0 0 32 32"><path fill="var(--color1, #00b2a0)" d="M29.861 22.931V3.739H2.138v19.192h13.328v4.265h-3.732v1.066h8.53v-1.066h-3.732v-4.265h13.329zM3.205 4.804h25.59v17.06H3.205V4.804z"/></symbol><symbol id="icon-mouse" viewBox="0 0 19 32"><path class="dot" fill="var(--color2, #fff)" d="M9.674 10.419a2.233 2.233 0 1 0 0-4.467 2.233 2.233 0 0 0 0 4.467z"/><path fill="none" stroke="var(--color2, #fff)" stroke-width="1.488" d="M9.674.744a8.93 8.93 0 0 1 8.93 8.93v12.651c0 4.932-3.998 8.93-8.93 8.93s-8.93-3.998-8.93-8.93V9.674a8.93 8.93 0 0 1 8.93-8.93z"/></symbol><symbol id="icon-pin" viewBox="0 0 26 32"><path fill="var(--color3, #fcbb08)" d="M12.981 32s12.981-11.85 12.981-19.019S20.15 0 12.981 0 0 5.812 0 12.981 12.981 32 12.981 32z"/></symbol><symbol id="icon-play" viewBox="0 0 27 32"><path fill="var(--color2, #fff)" d="m1.501 2.615 22.537 13.146L1.501 28.907V2.614zM0 .001v31.52L27.016 15.76 0 .001z"/></symbol><symbol id="icon-speaker" viewBox="0 0 31 32"><path fill="var(--color1, #00b2a0)" d="M.35 12.251v7.18h3.077v6.154h1.025v-6.154h7.889l7.491 6.062V6.006l-7.538 6.246H.349zm1.026 6.153v-5.128h4.102v5.128H1.376zm11.573-5.363 5.858-4.854v15.156l-6.102-4.937H6.504v-5.128h6.16l.286-.237zM26.931 6.91l-.738.738c2.4 1.879 3.951 4.795 3.951 8.072 0 3.365-1.636 6.348-4.147 8.218l.743.743a11.262 11.262 0 0 0 4.43-8.961c0-3.565-1.656-6.743-4.239-8.81h-.001z"/><path fill="var(--color1, #00b2a0)" d="m23.635 10.216-.745.745a5.637 5.637 0 0 1 2.64 4.768 5.638 5.638 0 0 1-2.853 4.897l.747.747a6.66 6.66 0 0 0 .212-11.158h-.001z"/></symbol></defs></svg>