<svg aria-hidden="true" style="position: absolute; width: 0; height: 0; overflow: hidden;" version="1.1" xmlns="http://www.w3.org/2000/svg" xmlns:xlink="http://www.w3.org/1999/xlink">
<defs>
<symbol id="icon-graphic" viewBox="0 0 29 32">
<path fill="#00b2a0" style="fill: var(--color1, #00b2a0)" d="M26.409 9.772l-0.951 0.951c-2.060-1.795-4.701-2.8-7.447-2.8-1.849 0-3.697 0.475-5.281 1.32l4.014-4.014c0.317 0.211 0.686 0.317 1.057 0.317 0.528 0 1.057-0.211 1.479-0.634 0.845-0.845 0.845-2.166 0-3.011-0.423-0.423-0.951-0.634-1.479-0.634s-1.057 0.211-1.479 0.634c-0.686 0.74-0.792 1.795-0.317 2.588l-5.070 5.070-0.951-0.951-2.588 2.588 0.951 0.951-5.176 5.176c-0.317-0.211-0.686-0.317-1.057-0.317-0.528 0-1.057 0.211-1.479 0.634-0.845 0.845-0.845 2.166 0 3.011 0.423 0.369 0.951 0.581 1.479 0.581s1.057-0.211 1.479-0.634c0.686-0.686 0.792-1.743 0.317-2.588l4.014-4.014c-2.112 4.067-1.637 9.138 1.479 12.729l-0.951 1.003 2.641 2.588 2.588-2.588-2.588-2.588-0.898 0.898c-3.063-3.592-3.222-8.767-0.634-12.57l0.423 0.423 2.641-2.588-0.475-0.423c1.69-1.215 3.75-1.849 5.863-1.849 2.483 0 4.806 0.898 6.707 2.483l-0.951 0.898 2.641 2.588 2.588-2.588-2.588-2.642zM12.201 27.729l-1.109 1.109-1.109-1.109 1.109-1.109 1.109 1.109zM17.060 2.694c0.211-0.211 0.475-0.317 0.74-0.317s0.528 0.106 0.74 0.317c0.423 0.423 0.423 1.057 0 1.479-0.211 0.211-0.475 0.317-0.74 0.317s-0.528-0.106-0.74-0.317c-0.423-0.369-0.423-1.057 0-1.479zM2.852 19.859c-0.211 0.211-0.475 0.317-0.74 0.317s-0.528-0.106-0.74-0.317c-0.211-0.159-0.317-0.423-0.317-0.74 0-0.264 0.106-0.528 0.317-0.74s0.475-0.317 0.74-0.317 0.528 0.106 0.74 0.317c0.423 0.423 0.423 1.109 0 1.479v0.001zM9.93 12.412l-1.109-1.109 1.109-1.109 1.109 1.109-1.109 1.109zM26.409 13.521l-1.109-1.109 1.109-1.109 1.109 1.109-1.109 1.109z"></path>
</symbol>
<symbol id="icon-logo" viewBox="0 0 32 32">
<path fill="#00b2a0" style="fill: var(--color1, #00b2a0)" d="M16 3.81c6.705 0 12.19 5.486 12.19 12.19s-5.486 12.19-12.19 12.19c-6.705 0-12.19-5.486-12.19-12.19s5.486-12.19 12.19-12.19zM16 0c-8.838 0-16 7.162-16 16s7.162 16 16 16c8.838 0 16-7.162 16-16s-7.162-16-16-16z"></path>
</symbol>
<symbol id="icon-monitor" viewBox="0 0 32 32">
<path fill="#00b2a0" style="fill: var(--color1, #00b2a0)" d="M29.861 22.931v-19.192h-27.723v19.192h13.328v4.265h-3.732v1.066h8.53v-1.066h-3.732v-4.265h13.329zM3.205 4.804h25.59v17.060h-25.59v-17.060z"></path>
</symbol>
<symbol id="icon-mouse" viewBox="0 0 19 32">
<path fill="#fff" style="fill: var(--color2, #fff)" d="M9.674 10.419c1.233 0 2.233-1 2.233-2.233s-1-2.233-2.233-2.233-2.233 1-2.233 2.233c0 1.233 1 2.233 2.233 2.233z"></path>
<path fill="none" stroke="#fff" style="stroke: var(--color2, #fff)" stroke-linejoin="miter" stroke-linecap="butt" stroke-miterlimit="4" stroke-width="1.4884" d="M9.674 0.744c4.932 0 8.93 3.998 8.93 8.93v12.651c0 4.932-3.998 8.93-8.93 8.93s-8.93-3.998-8.93-8.93v-12.651c0-4.932 3.998-8.93 8.93-8.93z"></path>
</symbol>
<symbol id="icon-pin" viewBox="0 0 26 32">
<path fill="#fcbb08" style="fill: var(--color3, #fcbb08)" d="M12.981 32c0 0 12.981-11.85 12.981-19.019s-5.812-12.981-12.981-12.981c-7.169 0-12.981 5.812-12.981 12.981s12.981 19.019 12.981 19.019z"></path>
</symbol>
<symbol id="icon-play" viewBox="0 0 27 32">
<path fill="#fff" style="fill: var(--color2, #fff)" d="M1.501 2.615l22.537 13.146-22.537 13.146v-26.293zM0 0.001v31.52l27.016-15.761-27.016-15.759z"></path>
</symbol>
<symbol id="icon-speaker" viewBox="0 0 31 32">
<path fill="#00b2a0" style="fill: var(--color1, #00b2a0)" d="M0.35 12.251v7.18h3.077v6.154h1.025v-6.154h7.889l7.491 6.062v-19.487l-7.538 6.246h-11.945zM1.376 18.404v-5.128h4.102v5.128h-4.102zM12.949 13.041l5.858-4.854v15.156l-6.102-4.937h-6.201v-5.128h6.16l0.286-0.237z"></path>
<path fill="#00b2a0" style="fill: var(--color1, #00b2a0)" d="M26.931 6.91l-0.738 0.738c2.4 1.879 3.951 4.795 3.951 8.072 0 3.365-1.636 6.348-4.147 8.218l0.743 0.743c2.692-2.061 4.43-5.308 4.43-8.961 0-3.565-1.656-6.743-4.239-8.81h-0.001z"></path>
<path fill="#00b2a0" style="fill: var(--color1, #00b2a0)" d="M23.635 10.216l-0.745 0.745c1.583 1 2.64 2.761 2.64 4.768 0 2.096-1.151 3.925-2.853 4.897l0.747 0.747c1.879-1.179 3.132-3.263 3.132-5.644 0-2.293-1.158-4.314-2.92-5.514h-0.001z"></path>
</symbol>
</defs>
</svg>
